<svg xmlns="http://www.w3.org/2000/svg" width="35" height="35" viewBox="0 0 35 35"><defs><clipPath id="pqsfa"><path fill="#fff" d="M17.498.01c9.662 0 17.494 7.83 17.494 17.49 0 9.66-7.832 17.492-17.494 17.492C7.836 34.992.003 27.16.003 17.5.003 7.84 7.836.01 17.498.01zm4.015 12.081c-.676-1.16-1.628-1.672-1.674-2.995-.038-1.096-.03-1.51-.012-1.613-.224-.604-1.325-1.064-1.943-1.064-.688 0-1.523.574-1.523 1.281 0 .008-.043.017-.043.027l-.007 4.295H10.04c-.008-.001-.016.078-.024.078-.683 0-1.018.715-1.018 1.416 0 .7.335 1.254 1.018 1.254h2.129v.935l-2.161-.058v.06c-.668.019-.986.668-.986 1.359 0 .688.313 1.304.978 1.328H10l.018.002.017-.001h2.11v.685h-2.064v.004c-.021-.002-.042-.004-.063-.004-.684 0-1.02.717-1.02 1.419 0 .702.336 1.374 1.02 1.374a.661.661 0 0 0 .063-.004v.003h2.064v.66h-2.071c-.02-.001-.037.171-.056.171-.684 0-1.02.614-1.02 1.317 0 .687.313 1.32.978 1.342v.004h12.751s.74-2.141 1.657-2.141h1.765v-8.457s-3.286-.361-4.636-2.677zm-1.686-4.608c.026.07.04.143.04.217 0-.14-.024-.313-.04-.217z"/></clipPath></defs><g><g><path d="M17.498.01c9.662 0 17.494 7.83 17.494 17.49 0 9.66-7.832 17.492-17.494 17.492C7.836 34.992.003 27.16.003 17.5.003 7.84 7.836.01 17.498.01zm4.015 12.081c-.676-1.16-1.628-1.672-1.674-2.995-.038-1.096-.03-1.51-.012-1.613-.224-.604-1.325-1.064-1.943-1.064-.688 0-1.523.574-1.523 1.281 0 .008-.043.017-.043.027l-.007 4.295H10.04c-.008-.001-.016.078-.024.078-.683 0-1.018.715-1.018 1.416 0 .7.335 1.254 1.018 1.254h2.129v.935l-2.161-.058v.06c-.668.019-.986.668-.986 1.359 0 .688.313 1.304.978 1.328H10l.018.002.017-.001h2.11v.685h-2.064v.004c-.021-.002-.042-.004-.063-.004-.684 0-1.02.717-1.02 1.419 0 .702.336 1.374 1.02 1.374a.661.661 0 0 0 .063-.004v.003h2.064v.66h-2.071c-.02-.001-.037.171-.056.171-.684 0-1.02.614-1.02 1.317 0 .687.313 1.32.978 1.342v.004h12.751s.74-2.141 1.657-2.141h1.765v-8.457s-3.286-.361-4.636-2.677zm-1.686-4.608c.026.07.04.143.04.217 0-.14-.024-.313-.04-.217z"/><path fill="none" stroke-miterlimit="50" stroke-width="3.62" d="M17.498.01c9.662 0 17.494 7.83 17.494 17.49 0 9.66-7.832 17.492-17.494 17.492C7.836 34.992.003 27.16.003 17.5.003 7.84 7.836.01 17.498.01zm4.015 12.081c-.676-1.16-1.628-1.672-1.674-2.995-.038-1.096-.03-1.51-.012-1.613-.224-.604-1.325-1.064-1.943-1.064-.688 0-1.523.574-1.523 1.281 0 .008-.043.017-.043.027l-.007 4.295H10.04c-.008-.001-.016.078-.024.078-.683 0-1.018.715-1.018 1.416 0 .7.335 1.254 1.018 1.254h2.129v.935l-2.161-.058v.06c-.668.019-.986.668-.986 1.359 0 .688.313 1.304.978 1.328v0H10l.018.002.017-.001h2.11v.685h-2.064v.004c-.021-.002-.042-.004-.063-.004-.684 0-1.02.717-1.02 1.419 0 .702.336 1.374 1.02 1.374a.661.661 0 0 0 .063-.004v.003h2.064v.66h-2.071c-.02-.001-.037.171-.056.171-.684 0-1.02.614-1.02 1.317 0 .687.313 1.32.978 1.342v.004h12.751s.74-2.141 1.657-2.141h1.765v-8.457s-3.286-.361-4.636-2.677zm-1.686-4.608c.026.07.04.143.04.217 0-.14-.024-.313-.04-.217z" clip-path="url(&quot;#pqsfa&quot;)"/></g></g></svg>