<svg xmlns="http://www.w3.org/2000/svg" width="35" height="36" viewBox="0 0 35 36"><defs><clipPath id="h9z1a"><path fill="#fff" d="M17.384.546c9.663 0 17.497 7.832 17.497 17.493 0 9.66-7.834 17.492-17.497 17.492S-.113 27.7-.113 18.04C-.113 8.378 7.72.546 17.384.546zM28.07 17.932c0-5.791-4.696-10.486-10.488-10.486-5.793 0-10.49 4.695-10.49 10.486H4.996l3.496 4.195 3.497-4.195H9.89a7.691 7.691 0 0 1 7.692-7.69 7.691 7.691 0 1 1 0 15.38v2.797c5.792 0 10.488-4.695 10.488-10.487z"/></clipPath></defs><g><g><path fill="#fff" d="M17.384.546c9.663 0 17.497 7.832 17.497 17.493 0 9.66-7.834 17.492-17.497 17.492S-.113 27.7-.113 18.04C-.113 8.378 7.72.546 17.384.546zM28.07 17.932c0-5.791-4.696-10.486-10.488-10.486-5.793 0-10.49 4.695-10.49 10.486H4.996l3.496 4.195 3.497-4.195H9.89a7.691 7.691 0 0 1 7.692-7.69 7.691 7.691 0 1 1 0 15.38v2.797c5.792 0 10.488-4.695 10.488-10.487z"/><path fill="none" stroke="#fff" stroke-miterlimit="50" stroke-width="3.62" d="M17.384.546c9.663 0 17.497 7.832 17.497 17.493 0 9.66-7.834 17.492-17.497 17.492S-.113 27.7-.113 18.04C-.113 8.378 7.72.546 17.384.546zM28.07 17.932c0-5.791-4.696-10.486-10.488-10.486-5.793 0-10.49 4.695-10.49 10.486H4.996l3.496 4.195 3.497-4.195H9.89a7.691 7.691 0 0 1 7.692-7.69 7.691 7.691 0 1 1 0 15.38v2.797c5.792 0 10.488-4.695 10.488-10.487z" clip-path="url(&quot;#h9z1a&quot;)"/></g></g></svg>