<svg xmlns="http://www.w3.org/2000/svg" width="35" height="35" viewBox="0 0 35 35"><g><g><path fill="#83f3c6" d="M17.498.01c9.662 0 17.494 7.83 17.494 17.49 0 9.66-7.832 17.491-17.494 17.491-9.662 0-17.495-7.83-17.495-17.49C.003 7.84 7.836.01 17.498.01zm4.015 12.08c-.676-1.159-1.628-1.671-1.674-2.995-.039-1.094-.03-1.508-.012-1.612-.224-.604-1.325-1.064-1.943-1.064-.688 0-1.523.574-1.523 1.281 0 .008-.043.017-.043.026l-.007 4.296H10.04c-.008-.001-.016.078-.024.078-.683 0-1.018.715-1.018 1.416 0 .7.335 1.254 1.018 1.254H12.144v.935l-2.16-.059v.061c-.668.019-.986.668-.986 1.36 0 .686.313 1.303.978 1.327v.001h2.169v.685H10.08v.004c-.021-.002-.042-.004-.064-.004-.684 0-1.02.717-1.02 1.42 0 .7.336 1.373 1.02 1.373.022 0 .043-.002.064-.004v.002h2.064v.66h-2.071c-.02 0-.038.173-.057.173-.684 0-1.02.613-1.02 1.315 0 .688.314 1.32.98 1.343v.004h12.75s.74-2.141 1.657-2.141h1.765v-8.458s-3.286-.36-4.636-2.676zm-1.686-4.607c.026.07.04.143.04.217 0-.14-.024-.314-.04-.217z"/></g></g></svg>